# xmcd CD database file
#
# Track frame offsets:
#	150
#	13414
#	22044
#	36218
#	51989
#	65248
#	80930
#	90775
#	105521
#	120235
#	131748
#	152671
#	164823
#	180579
#
# Disc length: 2652 seconds
#
# Revision: 0
# Processed by: cddbd v1.5.1PL0 Copyright (c) Steve Scherf et al.
# Submitted via: CDex 1.51
#
DISCID=be0a5a0e
DTITLE=Q 65 - Trinity
DYEAR=2003
DGENRE=Blues
TTITLE0=Franky's Blues
TTITLE1=Sexy Legs
TTITLE2=The Life I Live
TTITLE3=Sour Wine
TTITLE4=Fighting Is Easy
TTITLE5=Bring It On Home
TTITLE6=Spoonfull
TTITLE7=Dutch Mills
TTITLE8=Middle-Age Talk
TTITLE9=I Got Nightmares
TTITLE10=Let's Roll
TTITLE11=We're Gonna Make It
TTITLE12=No Home
TTITLE13=Night
EXTD=YEAR: 2003
EXTT0=
EXTT1=
EXTT2=
EXTT3=
EXTT4=
EXTT5=
EXTT6=
EXTT7=
EXTT8=
EXTT9=
EXTT10=
EXTT11=
EXTT12=
EXTT13=
PLAYORDER=
